<svg width="152" height="45" viewBox="0 0 152 45" fill="none" xmlns="http://www.w3.org/2000/svg">
<path d="M51.04 25.1162C50.9067 25.1162 50.7933 25.0695 50.7 24.9762C50.6067 24.8829 50.56 24.7695 50.56 24.6362V11.5962C50.56 11.4629 50.6067 11.3495 50.7 11.2562C50.7933 11.1629 50.9067 11.1162 51.04 11.1162H52.9C53.0333 11.1162 53.1467 11.1629 53.24 11.2562C53.3333 11.3495 53.38 11.4629 53.38 11.5962V22.7362H59.72C59.8667 22.7362 59.9867 22.7829 60.08 22.8762C60.1733 22.9695 60.22 23.0895 60.22 23.2362V24.6362C60.22 24.7695 60.1733 24.8829 60.08 24.9762C59.9867 25.0695 59.8667 25.1162 59.72 25.1162H51.04ZM64.9416 25.3162C64.2482 25.3162 63.6216 25.1829 63.0616 24.9162C62.5016 24.6362 62.0549 24.2695 61.7216 23.8162C61.4016 23.3495 61.2416 22.8295 61.2416 22.2562C61.2416 21.3229 61.6149 20.5829 62.3616 20.0362C63.1216 19.4762 64.1216 19.1029 65.3616 18.9162L68.1016 18.5162V18.0962C68.1016 17.5362 67.9616 17.1029 67.6816 16.7962C67.4016 16.4895 66.9216 16.3362 66.2416 16.3362C65.7616 16.3362 65.3682 16.4362 65.0616 16.6362C64.7682 16.8229 64.5482 17.0762 64.4016 17.3962C64.2949 17.5695 64.1416 17.6562 63.9416 17.6562H62.3616C62.2149 17.6562 62.1016 17.6162 62.0216 17.5362C61.9549 17.4562 61.9216 17.3495 61.9216 17.2162C61.9349 17.0029 62.0216 16.7429 62.1816 16.4362C62.3416 16.1295 62.5949 15.8362 62.9416 15.5562C63.2882 15.2629 63.7349 15.0162 64.2816 14.8162C64.8282 14.6162 65.4882 14.5162 66.2616 14.5162C67.1016 14.5162 67.8082 14.6229 68.3816 14.8362C68.9682 15.0362 69.4349 15.3095 69.7816 15.6562C70.1282 16.0029 70.3816 16.4095 70.5416 16.8762C70.7016 17.3429 70.7816 17.8362 70.7816 18.3562V24.6362C70.7816 24.7695 70.7349 24.8829 70.6416 24.9762C70.5482 25.0695 70.4349 25.1162 70.3016 25.1162H68.6816C68.5349 25.1162 68.4149 25.0695 68.3216 24.9762C68.2416 24.8829 68.2016 24.7695 68.2016 24.6362V23.8562C68.0282 24.1095 67.7949 24.3495 67.5016 24.5762C67.2082 24.7895 66.8482 24.9695 66.4216 25.1162C66.0082 25.2495 65.5149 25.3162 64.9416 25.3162ZM65.6216 23.4162C66.0882 23.4162 66.5082 23.3162 66.8816 23.1162C67.2682 22.9162 67.5682 22.6095 67.7816 22.1962C68.0082 21.7695 68.1216 21.2362 68.1216 20.5962V20.1762L66.1216 20.4962C65.3349 20.6162 64.7482 20.8095 64.3616 21.0762C63.9749 21.3429 63.7816 21.6695 63.7816 22.0562C63.7816 22.3495 63.8682 22.6029 64.0416 22.8162C64.2282 23.0162 64.4616 23.1695 64.7416 23.2762C65.0216 23.3695 65.3149 23.4162 65.6216 23.4162ZM77.2873 25.3162C76.4873 25.3162 75.8007 25.2229 75.2273 25.0362C74.6673 24.8495 74.2073 24.6162 73.8473 24.3362C73.4873 24.0562 73.2207 23.7762 73.0473 23.4962C72.874 23.2162 72.7807 22.9829 72.7673 22.7962C72.754 22.6495 72.794 22.5362 72.8873 22.4562C72.994 22.3629 73.1073 22.3162 73.2273 22.3162H74.8073C74.8607 22.3162 74.9073 22.3229 74.9473 22.3362C74.9873 22.3495 75.0407 22.3895 75.1073 22.4562C75.2807 22.6029 75.4607 22.7562 75.6473 22.9162C75.8473 23.0762 76.0807 23.2162 76.3473 23.3362C76.614 23.4429 76.9473 23.4962 77.3473 23.4962C77.8673 23.4962 78.3007 23.3962 78.6473 23.1962C79.0073 22.9829 79.1873 22.6829 79.1873 22.2962C79.1873 22.0162 79.1073 21.7895 78.9473 21.6162C78.8007 21.4429 78.5207 21.2895 78.1073 21.1562C77.694 21.0095 77.1073 20.8562 76.3473 20.6962C75.6007 20.5229 74.9807 20.3029 74.4873 20.0362C73.994 19.7695 73.6273 19.4362 73.3873 19.0362C73.1473 18.6362 73.0273 18.1695 73.0273 17.6362C73.0273 17.1162 73.1807 16.6229 73.4873 16.1562C73.8073 15.6762 74.274 15.2829 74.8873 14.9762C75.514 14.6695 76.2873 14.5162 77.2073 14.5162C77.9273 14.5162 78.554 14.6095 79.0873 14.7962C79.6207 14.9695 80.0607 15.1895 80.4073 15.4562C80.7673 15.7229 81.0407 15.9962 81.2273 16.2762C81.414 16.5429 81.514 16.7762 81.5273 16.9762C81.5407 17.1229 81.5007 17.2429 81.4073 17.3362C81.314 17.4162 81.2073 17.4562 81.0873 17.4562H79.6073C79.5407 17.4562 79.4807 17.4429 79.4273 17.4162C79.374 17.3895 79.3207 17.3562 79.2673 17.3162C79.1207 17.1829 78.9607 17.0429 78.7873 16.8962C78.614 16.7495 78.4007 16.6229 78.1473 16.5162C77.9073 16.3962 77.5873 16.3362 77.1873 16.3362C76.6807 16.3362 76.294 16.4495 76.0273 16.6762C75.7607 16.8895 75.6273 17.1629 75.6273 17.4962C75.6273 17.7229 75.6873 17.9229 75.8073 18.0962C75.9407 18.2562 76.2007 18.4095 76.5873 18.5562C76.974 18.7029 77.5607 18.8562 78.3473 19.0162C79.2407 19.1762 79.9473 19.4162 80.4673 19.7362C81.0007 20.0429 81.374 20.4029 81.5873 20.8162C81.814 21.2162 81.9273 21.6629 81.9273 22.1562C81.9273 22.7562 81.7473 23.2962 81.3873 23.7762C81.0407 24.2562 80.5207 24.6362 79.8273 24.9162C79.1473 25.1829 78.3007 25.3162 77.2873 25.3162ZM84.4919 25.1162C84.3585 25.1162 84.2452 25.0695 84.1519 24.9762C84.0585 24.8829 84.0119 24.7695 84.0119 24.6362V11.3962C84.0119 11.2629 84.0585 11.1495 84.1519 11.0562C84.2452 10.9629 84.3585 10.9162 84.4919 10.9162H86.1519C86.2852 10.9162 86.3985 10.9629 86.4919 11.0562C86.5852 11.1495 86.6319 11.2629 86.6319 11.3962V24.6362C86.6319 24.7695 86.5852 24.8829 86.4919 24.9762C86.3985 25.0695 86.2852 25.1162 86.1519 25.1162H84.4919ZM93.7648 25.3162C92.2848 25.3162 91.1115 24.8895 90.2448 24.0362C89.3782 23.1829 88.9115 21.9695 88.8448 20.3962C88.8315 20.2629 88.8248 20.0962 88.8248 19.8962C88.8248 19.6829 88.8315 19.5162 88.8448 19.3962C88.8982 18.3962 89.1248 17.5295 89.5248 16.7962C89.9382 16.0629 90.5048 15.5029 91.2248 15.1162C91.9448 14.7162 92.7915 14.5162 93.7648 14.5162C94.8448 14.5162 95.7515 14.7429 96.4848 15.1962C97.2182 15.6362 97.7715 16.2562 98.1448 17.0562C98.5182 17.8429 98.7048 18.7562 98.7048 19.7962V20.2162C98.7048 20.3495 98.6582 20.4629 98.5648 20.5562C98.4715 20.6495 98.3515 20.6962 98.2048 20.6962H91.5648C91.5648 20.6962 91.5648 20.7162 91.5648 20.7562C91.5648 20.7962 91.5648 20.8295 91.5648 20.8562C91.5782 21.3229 91.6648 21.7562 91.8248 22.1562C91.9982 22.5429 92.2448 22.8562 92.5648 23.0962C92.8982 23.3362 93.2915 23.4562 93.7448 23.4562C94.1182 23.4562 94.4315 23.4029 94.6848 23.2962C94.9382 23.1762 95.1448 23.0429 95.3048 22.8962C95.4648 22.7495 95.5782 22.6295 95.6448 22.5362C95.7648 22.3762 95.8582 22.2829 95.9248 22.2562C96.0048 22.2162 96.1182 22.1962 96.2648 22.1962H97.9848C98.1182 22.1962 98.2248 22.2362 98.3048 22.3162C98.3982 22.3962 98.4382 22.4962 98.4248 22.6162C98.4115 22.8295 98.2982 23.0895 98.0848 23.3962C97.8848 23.7029 97.5915 24.0029 97.2048 24.2962C96.8182 24.5895 96.3315 24.8362 95.7448 25.0362C95.1715 25.2229 94.5115 25.3162 93.7648 25.3162ZM91.5648 19.0162H95.9848V18.9562C95.9848 18.4362 95.8982 17.9829 95.7248 17.5962C95.5515 17.2095 95.2982 16.9029 94.9648 16.6762C94.6315 16.4495 94.2315 16.3362 93.7648 16.3362C93.2982 16.3362 92.8982 16.4495 92.5648 16.6762C92.2315 16.9029 91.9782 17.2095 91.8048 17.5962C91.6448 17.9829 91.5648 18.4362 91.5648 18.9562V19.0162ZM104.768 25.3162C103.968 25.3162 103.281 25.2229 102.708 25.0362C102.148 24.8495 101.688 24.6162 101.328 24.3362C100.968 24.0562 100.701 23.7762 100.528 23.4962C100.354 23.2162 100.261 22.9829 100.248 22.7962C100.234 22.6495 100.274 22.5362 100.368 22.4562C100.474 22.3629 100.588 22.3162 100.708 22.3162H102.288C102.341 22.3162 102.388 22.3229 102.428 22.3362C102.468 22.3495 102.521 22.3895 102.588 22.4562C102.761 22.6029 102.941 22.7562 103.128 22.9162C103.328 23.0762 103.561 23.2162 103.828 23.3362C104.094 23.4429 104.428 23.4962 104.828 23.4962C105.348 23.4962 105.781 23.3962 106.128 23.1962C106.488 22.9829 106.668 22.6829 106.668 22.2962C106.668 22.0162 106.588 21.7895 106.428 21.6162C106.281 21.4429 106.001 21.2895 105.588 21.1562C105.174 21.0095 104.588 20.8562 103.828 20.6962C103.081 20.5229 102.461 20.3029 101.968 20.0362C101.474 19.7695 101.108 19.4362 100.868 19.0362C100.628 18.6362 100.508 18.1695 100.508 17.6362C100.508 17.1162 100.661 16.6229 100.968 16.1562C101.288 15.6762 101.754 15.2829 102.368 14.9762C102.994 14.6695 103.768 14.5162 104.688 14.5162C105.408 14.5162 106.034 14.6095 106.568 14.7962C107.101 14.9695 107.541 15.1895 107.888 15.4562C108.248 15.7229 108.521 15.9962 108.708 16.2762C108.894 16.5429 108.994 16.7762 109.008 16.9762C109.021 17.1229 108.981 17.2429 108.888 17.3362C108.794 17.4162 108.688 17.4562 108.568 17.4562H107.088C107.021 17.4562 106.961 17.4429 106.908 17.4162C106.854 17.3895 106.801 17.3562 106.748 17.3162C106.601 17.1829 106.441 17.0429 106.268 16.8962C106.094 16.7495 105.881 16.6229 105.628 16.5162C105.388 16.3962 105.068 16.3362 104.668 16.3362C104.161 16.3362 103.774 16.4495 103.508 16.6762C103.241 16.8895 103.108 17.1629 103.108 17.4962C103.108 17.7229 103.168 17.9229 103.288 18.0962C103.421 18.2562 103.681 18.4095 104.068 18.5562C104.454 18.7029 105.041 18.8562 105.828 19.0162C106.721 19.1762 107.428 19.4162 107.948 19.7362C108.481 20.0429 108.854 20.4029 109.068 20.8162C109.294 21.2162 109.408 21.6629 109.408 22.1562C109.408 22.7562 109.228 23.2962 108.868 23.7762C108.521 24.2562 108.001 24.6362 107.308 24.9162C106.628 25.1829 105.781 25.3162 104.768 25.3162ZM115.552 25.1162C115.326 25.1162 115.146 25.0562 115.012 24.9362C114.879 24.8162 114.786 24.6762 114.732 24.5162L110.652 11.7162C110.626 11.6495 110.612 11.5895 110.612 11.5362C110.612 11.4295 110.652 11.3362 110.732 11.2562C110.826 11.1629 110.932 11.1162 111.052 11.1162H113.532C113.746 11.1162 113.912 11.1762 114.032 11.2962C114.152 11.4162 114.226 11.5295 114.252 11.6362L117.072 20.8762L119.912 11.6362C119.952 11.5295 120.026 11.4162 120.132 11.2962C120.252 11.1762 120.419 11.1162 120.632 11.1162H123.112C123.232 11.1162 123.332 11.1629 123.412 11.2562C123.506 11.3362 123.552 11.4295 123.552 11.5362C123.552 11.5895 123.539 11.6495 123.512 11.7162L119.432 24.5162C119.379 24.6762 119.286 24.8162 119.152 24.9362C119.032 25.0562 118.852 25.1162 118.612 25.1162H115.552ZM125.92 25.1162C125.773 25.1162 125.653 25.0695 125.56 24.9762C125.466 24.8829 125.42 24.7629 125.42 24.6162V11.6162C125.42 11.4695 125.466 11.3495 125.56 11.2562C125.653 11.1629 125.773 11.1162 125.92 11.1162H131.52C132.626 11.1162 133.586 11.2895 134.4 11.6362C135.226 11.9695 135.866 12.4762 136.32 13.1562C136.786 13.8362 137.02 14.6962 137.02 15.7362C137.02 16.7629 136.786 17.6095 136.32 18.2762C135.866 18.9429 135.226 19.4362 134.4 19.7562C133.586 20.0762 132.626 20.2362 131.52 20.2362H129.14V24.6162C129.14 24.7629 129.086 24.8829 128.98 24.9762C128.886 25.0695 128.766 25.1162 128.62 25.1162H125.92ZM129.08 17.4762H131.42C131.993 17.4762 132.446 17.3295 132.78 17.0362C133.126 16.7429 133.3 16.2962 133.3 15.6962C133.3 15.1895 133.153 14.7629 132.86 14.4162C132.566 14.0695 132.086 13.8962 131.42 13.8962H129.08V17.4762ZM139.435 25.1162C139.288 25.1162 139.168 25.0695 139.075 24.9762C138.982 24.8829 138.935 24.7629 138.935 24.6162V11.6162C138.935 11.4695 138.982 11.3495 139.075 11.2562C139.168 11.1629 139.288 11.1162 139.435 11.1162H141.555C141.782 11.1162 141.942 11.1695 142.035 11.2762C142.142 11.3695 142.208 11.4429 142.235 11.4962L147.115 19.1962V11.6162C147.115 11.4695 147.162 11.3495 147.255 11.2562C147.348 11.1629 147.468 11.1162 147.615 11.1162H150.015C150.162 11.1162 150.282 11.1629 150.375 11.2562C150.468 11.3495 150.515 11.4695 150.515 11.6162V24.6162C150.515 24.7495 150.468 24.8695 150.375 24.9762C150.282 25.0695 150.162 25.1162 150.015 25.1162H147.875C147.662 25.1162 147.502 25.0629 147.395 24.9562C147.302 24.8495 147.242 24.7762 147.215 24.7362L142.335 17.3362V24.6162C142.335 24.7629 142.288 24.8829 142.195 24.9762C142.102 25.0695 141.982 25.1162 141.835 25.1162H139.435Z" fill="#0B132A"/>
<g filter="url(#filter0_d_0_282)">
<path d="M35.1473 13.6477L35.1255 13.626C35.1238 13.6247 35.1224 13.6231 35.1215 13.6212L21.5006 0L7.87983 13.6209C7.87826 13.6225 7.8758 13.6256 7.8758 13.6256L7.85333 13.6474C5.77053 15.7419 4.44759 18.4725 4.09482 21.4052C3.74205 24.3379 4.3797 27.3044 5.90639 29.8331C7.43309 32.3619 9.76122 34.3077 12.5207 35.3612C15.2802 36.4147 18.3126 36.5157 21.136 35.6477C21.3735 35.5751 21.6275 35.5751 21.8651 35.6477C24.6882 36.5153 27.7205 36.4144 30.4798 35.3607C33.2391 34.307 35.567 32.3613 37.0936 29.8328C38.6202 27.3042 39.2579 24.3379 38.9053 21.4054C38.5526 18.4728 37.2299 15.7422 35.1473 13.6477ZM12.7232 22.6298C12.6569 22.6961 12.6043 22.7749 12.5684 22.8615C12.5326 22.948 12.5141 23.0408 12.5141 23.1346C12.5384 25.5386 13.2178 27.8904 14.4792 29.9371C14.5079 29.9835 14.5211 30.0379 14.517 30.0922C14.513 30.1465 14.4918 30.1982 14.4566 30.2399C14.4213 30.2816 14.3738 30.311 14.3209 30.324C14.2679 30.337 14.2122 30.333 14.1616 30.3124C13.2133 29.9135 12.3518 29.3336 11.6253 28.6053C10.1365 27.1162 9.29946 25.097 9.2981 22.9912C9.29675 20.8855 10.1312 18.8652 11.6181 17.3743L21.5006 7.49273L31.3826 17.3743C32.8698 18.865 33.7045 20.8853 33.703 22.9912C33.7018 25.097 32.8647 27.1162 31.3757 28.6053C30.6492 29.3336 29.7877 29.9135 28.8396 30.3124C28.7889 30.333 28.7332 30.337 28.6802 30.324C28.6273 30.311 28.5798 30.2814 28.5445 30.2399C28.5093 30.1982 28.488 30.1465 28.484 30.092C28.4799 30.0377 28.4931 29.9833 28.5218 29.9369C29.7835 27.8904 30.4633 25.5386 30.4879 23.1346C30.4879 23.0408 30.4692 22.948 30.4332 22.8613C30.3971 22.7746 30.3444 22.696 30.2779 22.6296L25.6037 17.6717C25.557 17.6329 25.4985 17.6116 25.4378 17.6116C25.3773 17.6116 25.3186 17.6329 25.2721 17.6717C25.2255 17.7104 25.1942 17.7644 25.1833 17.824C25.1724 17.8837 25.1828 17.945 25.2127 17.9978C27.0281 21.283 25.467 26.0017 22.8637 28.6053L22.85 28.6191C22.4907 28.9745 22.0056 29.1738 21.5002 29.1736C20.9948 29.1734 20.5098 28.9738 20.1508 28.6182L20.1382 28.6053C17.5339 26.0017 15.9736 21.2835 17.7893 17.9985C17.8192 17.9457 17.8296 17.8844 17.8187 17.8247C17.8079 17.7651 17.7764 17.7111 17.7299 17.6724C17.6834 17.6336 17.6247 17.6123 17.5642 17.6123C17.5036 17.6123 17.4449 17.6336 17.3984 17.6724L12.7232 22.6298Z" fill="#F53838"/>
</g>
<defs>
<filter id="filter0_d_0_282" x="0" y="0" width="43" height="44.2324" filterUnits="userSpaceOnUse" color-interpolation-filters="sRGB">
<feFlood flood-opacity="0" result="BackgroundImageFix"/>
<feColorMatrix in="SourceAlpha" type="matrix" values="0 0 0 0 0 0 0 0 0 0 0 0 0 0 0 0 0 0 127 0" result="hardAlpha"/>
<feOffset dy="4"/>
<feGaussianBlur stdDeviation="2"/>
<feComposite in2="hardAlpha" operator="out"/>
<feColorMatrix type="matrix" values="0 0 0 0 0 0 0 0 0 0 0 0 0 0 0 0 0 0 0.25 0"/>
<feBlend mode="normal" in2="BackgroundImageFix" result="effect1_dropShadow_0_282"/>
<feBlend mode="normal" in="SourceGraphic" in2="effect1_dropShadow_0_282" result="shape"/>
</filter>
</defs>
</svg>
